<svg width="86" height="34" viewBox="0 0 86 34" fill="none" xmlns="http://www.w3.org/2000/svg">
<g clip-path="url(#clip0_15_433)">
<path d="M45.3831 9.95213C45.3831 10.9731 44.603 11.7956 43.6345 11.7956C42.666 11.7956 41.8859 10.9731 41.8859 9.95213C41.8859 8.93111 42.6391 8.10862 43.6345 8.10862C44.6299 8.13698 45.3831 8.95947 45.3831 9.95213ZM38.1734 13.6675C38.1734 13.8377 38.1734 14.1213 38.1734 14.1213C38.1734 14.1213 37.3394 12.9868 35.5639 12.9868C32.6316 12.9868 30.345 15.3408 30.345 18.6024C30.345 21.8357 32.6047 24.2181 35.5639 24.2181C37.3663 24.2181 38.1734 23.0552 38.1734 23.0552V23.5374C38.1734 23.7643 38.3348 23.9344 38.55 23.9344H40.7291V13.2704C40.7291 13.2704 38.7383 13.2704 38.55 13.2704C38.3348 13.2704 38.1734 13.469 38.1734 13.6675ZM38.1734 20.5027C37.7699 21.1266 36.9628 21.6655 35.9944 21.6655C34.2726 21.6655 32.9544 20.531 32.9544 18.6024C32.9544 16.6738 34.2726 15.5394 35.9944 15.5394C36.9359 15.5394 37.7968 16.1066 38.1734 16.7022V20.5027ZM42.3432 13.2704H44.9258V23.9344H42.3432V13.2704ZM80.9205 12.9868C79.145 12.9868 78.311 14.1213 78.311 14.1213V8.13698H75.7285V23.9344C75.7285 23.9344 77.7192 23.9344 77.9075 23.9344C78.1227 23.9344 78.2841 23.7359 78.2841 23.5374V23.0552C78.2841 23.0552 79.1181 24.2181 80.8936 24.2181C83.8259 24.2181 86.1126 21.8357 86.1126 18.6024C86.1126 15.3692 83.8259 12.9868 80.9205 12.9868ZM80.4901 21.6371C79.4947 21.6371 78.7146 21.0983 78.311 20.4743V16.6738C78.7146 16.1066 79.5754 15.511 80.4901 15.511C82.2118 15.511 83.53 16.6455 83.53 18.5741C83.53 20.5027 82.2118 21.6371 80.4901 21.6371ZM74.3834 17.6098V23.9628H71.8008V17.9218C71.8008 16.1633 71.2627 15.4543 69.81 15.4543C69.0299 15.4543 68.2228 15.8797 67.7117 16.5037V23.9344H65.1291V13.2704H67.1736C67.3889 13.2704 67.5503 13.469 67.5503 13.6675V14.1213C68.3035 13.2988 69.2989 12.9868 70.2943 12.9868C71.4241 12.9868 72.3657 13.3272 73.119 14.0079C74.0336 14.802 74.3834 15.823 74.3834 17.6098ZM58.861 12.9868C57.0854 12.9868 56.2515 14.1213 56.2515 14.1213V8.13698H53.6689V23.9344C53.6689 23.9344 55.6596 23.9344 55.848 23.9344C56.0632 23.9344 56.2246 23.7359 56.2246 23.5374V23.0552C56.2246 23.0552 57.0585 24.2181 58.8341 24.2181C61.7664 24.2181 64.053 21.8357 64.053 18.6024C64.0799 15.3692 61.7933 12.9868 58.861 12.9868ZM58.4305 21.6371C57.4352 21.6371 56.655 21.0983 56.2515 20.4743V16.6738C56.655 16.1066 57.5159 15.511 58.4305 15.511C60.1523 15.511 61.4704 16.6455 61.4704 18.5741C61.4704 20.5027 60.1523 21.6371 58.4305 21.6371ZM51.436 12.9868C52.2162 12.9868 52.6197 13.1286 52.6197 13.1286V15.6528C52.6197 15.6528 50.4676 14.8871 49.1225 16.5037V23.9628H46.5399V13.2704C46.5399 13.2704 48.5306 13.2704 48.7189 13.2704C48.9342 13.2704 49.0956 13.469 49.0956 13.6675V14.1213C49.5798 13.5257 50.629 12.9868 51.436 12.9868ZM24.6149 22.9701C24.4803 22.6298 24.3458 22.2611 24.2113 21.9491C23.9961 21.4386 23.7809 20.9565 23.5926 20.5027L23.5657 20.4743C21.7094 16.2201 19.7187 11.9091 17.6204 7.65483L17.5397 7.48466C17.3244 7.05924 17.1092 6.60545 16.894 6.15166C16.625 5.64115 16.356 5.10228 15.9255 4.59177C15.0647 3.4573 13.8272 2.83334 12.509 2.83334C11.1639 2.83334 9.95332 3.4573 9.06556 4.53505C8.66203 5.04556 8.36611 5.58443 8.09709 6.09494C7.88187 6.54873 7.66666 7.00251 7.45144 7.42794L7.37074 7.59811C5.29929 11.8524 3.28165 16.1633 1.42542 20.4176L1.39852 20.4743C1.2102 20.9281 0.994987 21.4103 0.779772 21.9208C0.645263 22.2327 0.510753 22.5731 0.376244 22.9418C0.0265192 23.9912 -0.0810884 24.9838 0.0534211 26.0048C0.349342 28.132 1.69444 29.9188 3.55067 30.7129C4.25012 31.0249 4.97647 31.1667 5.72972 31.1667C5.94494 31.1667 6.21395 31.1383 6.42917 31.11C7.31693 30.9965 8.2316 30.6845 9.11936 30.1457C10.2223 29.4933 11.2715 28.5574 12.4552 27.196C13.6389 28.5574 14.715 29.4933 15.791 30.1457C16.6788 30.6845 17.5935 30.9965 18.4812 31.11C18.6964 31.1383 18.9655 31.1667 19.1807 31.1667C19.9339 31.1667 20.6872 31.0249 21.3597 30.7129C23.2429 29.9188 24.561 28.1036 24.857 26.0048C25.0722 25.0122 24.9646 24.0195 24.6149 22.9701ZM12.4821 24.445C11.0294 22.5164 10.0878 20.7012 9.76501 19.1697C9.6305 18.5174 9.60359 17.9501 9.6843 17.4396C9.7381 16.9858 9.89951 16.5888 10.1147 16.2484C10.6259 15.4827 11.4867 15.0005 12.4821 15.0005C13.4775 15.0005 14.3652 15.4543 14.8495 16.2484C15.0647 16.5888 15.2261 16.9858 15.2799 17.4396C15.3606 17.9501 15.3337 18.5457 15.1992 19.1697C14.8764 20.6728 13.9348 22.488 12.4821 24.445ZM23.216 25.778C23.0276 27.2528 22.0861 28.529 20.7679 29.0963C20.1222 29.3799 19.4228 29.465 18.7233 29.3799C18.0508 29.2948 17.3782 29.0679 16.6788 28.6425C15.7103 28.0753 14.7419 27.196 13.612 25.8914C15.3875 23.5941 16.4636 21.4953 16.8671 19.6235C17.0554 18.7443 17.0823 17.9501 17.0016 17.2127C16.894 16.5037 16.6519 15.8514 16.2753 15.2841C15.4413 14.0079 14.0424 13.2704 12.4821 13.2704C10.9218 13.2704 9.52289 14.0362 8.68893 15.2841C8.3123 15.8514 8.07019 16.5037 7.96258 17.2127C7.85497 17.9501 7.88187 18.7726 8.09709 19.6235C8.50062 21.4953 9.60359 23.6225 11.3522 25.9198C10.2492 27.2244 9.25387 28.1036 8.2854 28.6708C7.58595 29.0963 6.9134 29.3232 6.24086 29.4082C5.51451 29.4933 4.81506 29.3799 4.19631 29.1246C2.87812 28.5574 1.93655 27.2811 1.74824 25.8063C1.66753 25.0973 1.72134 24.3882 1.99036 23.5941C2.07106 23.3105 2.20557 23.0269 2.34008 22.6865C2.5284 22.2327 2.74361 21.7506 2.95883 21.2684L2.98573 21.2117C4.84196 16.9858 6.8327 12.6749 8.90414 8.47732L8.98485 8.30715C9.20007 7.88172 9.41528 7.42794 9.6305 7.00251C9.84571 6.54873 10.0878 6.1233 10.3837 5.7546C10.9487 5.07392 11.7019 4.70522 12.5359 4.70522C13.3699 4.70522 14.1231 5.07392 14.6881 5.7546C14.984 6.1233 15.2261 6.54873 15.4413 7.00251C15.6565 7.42794 15.8717 7.88172 16.087 8.30715L16.1677 8.47732C18.2122 12.7032 20.2029 17.0142 22.0592 21.2401V21.2684C22.2744 21.7222 22.4627 22.2327 22.6779 22.6865C22.8124 23.0269 22.9469 23.3105 23.0276 23.5941C23.2429 24.3315 23.3236 25.0405 23.216 25.778Z" fill="#818487" fill-opacity="0.45"/>
</g>
<defs>
<clipPath id="clip0_15_433">
<rect width="86" height="34" fill="white"/>
</clipPath>
</defs>
</svg>
