<svg width="86" height="34" viewBox="0 0 86 34" fill="none" xmlns="http://www.w3.org/2000/svg">
<g clip-path="url(#clip0_15_559)">
<path fill-rule="evenodd" clip-rule="evenodd" d="M53 27C48.1024 30.25 40.1119 32 34 32C25.4302 32 17.8367 28.7462 12 24C11.5414 23.6268 12.4497 23.7093 13 24C19.299 27.2995 26.9548 29 35 29C40.4258 29 46.5118 28.0973 52 26C52.8291 25.6829 53.8108 26.4583 53 27Z" fill="#79797A" fill-opacity="0.45"/>
<path fill-rule="evenodd" clip-rule="evenodd" d="M55 25C54.3763 24.28 50.5775 24.8315 49 25C48.5194 25.0528 48.5671 24.2708 49 24C51.7991 22.2264 56.4644 23.4055 57 24C57.5356 24.5978 56.6304 28.0216 54 30C53.5965 30.3038 52.8202 30.4029 53 30C53.5906 28.6722 55.6273 25.7233 55 25Z" fill="#79797A" fill-opacity="0.45"/>
<path fill-rule="evenodd" clip-rule="evenodd" d="M50 12V10C50 9.73126 49.7305 9 50 9H59C59.2807 9 59 9.73466 59 10V11C58.9962 11.2551 59.4193 11.4727 59 12L54 18C55.6845 17.9626 57.4727 18.2176 59 19C59.3444 19.1769 59.9738 19.7449 60 20V22C60 22.2585 59.3294 22.1565 59 22C56.3085 20.7175 52.976 20.5645 50 22C49.6968 22.1497 49 22.2585 49 22V20C49 19.7109 49.6818 19.4388 50 19L55 12H50C50 12.2653 49.7192 12 50 12Z" fill="#79797A" fill-opacity="0.45"/>
<path fill-rule="evenodd" clip-rule="evenodd" d="M18 23H15C14.7454 22.983 15.0187 22.2211 15 22V10C15 9.75167 14.7155 9 15 9H18C18.2583 9.0102 17.9813 9.77548 18 10V11C18.6476 9.43179 20.3604 9 22 9C23.6658 9 24.2513 9.43179 25 11C25.6439 9.43179 27.4315 9 29 9C30.1155 9 31.2551 9.06111 32 10C32.8423 11.0443 33 12.6699 33 14V22C33 22.2483 32.2845 23 32 23H29C28.7342 22.983 29 22.2381 29 22V16C29 15.4761 29.1273 13.4967 29 13C28.8016 12.1666 27.7711 12 27 12C26.3561 12 26.2733 12.3741 26 13C25.7267 13.6259 25 15.2958 25 16V22C25 22.2483 25.2845 23 25 23H22C21.7305 22.983 22 22.2381 22 22V16C22 14.6155 21.8904 12 20 12C18.0871 12 18 14.5645 18 16V22C18 22.2483 18.2845 23 18 23Z" fill="#79797A" fill-opacity="0.45"/>
<path fill-rule="evenodd" clip-rule="evenodd" d="M67 9C70.9493 9 73 12.0812 73 16C73 19.7862 70.7247 23 67 23C63.1218 23 61 19.8406 61 16C61 12.1356 63.148 9 67 9ZM67 12C65.0385 12 65 14.4862 65 16C65 17.5172 64.9112 20 67 20C69.0626 20 69 17.592 69 16C69 14.9523 69.3481 13.9933 69 13C68.7005 12.136 67.846 12 67 12Z" fill="#79797A" fill-opacity="0.45"/>
<path fill-rule="evenodd" clip-rule="evenodd" d="M78 23H76C75.7342 22.983 75 22.2381 75 22V10C75.0224 9.77208 75.7305 9 76 9H78C78.2321 9.0102 78.9476 9.8061 79 10V12C79.7449 10.3025 80.162 9 82 9C83.1941 9 84.2513 9.92845 85 11C85.6963 11.9933 86 12.7992 86 14V22C85.97 22.2177 85.262 23 85 23H83C82.7567 22.983 82.0262 22.2109 82 22V16C82 14.6427 82.838 12 81 12C80.3524 12 79.2957 12.4013 79 13C78.6256 13.7586 79 15.1632 79 16V22C78.9962 22.2483 78.2845 23 78 23Z" fill="#79797A" fill-opacity="0.45"/>
<path fill-rule="evenodd" clip-rule="evenodd" d="M43 17C43 17.9423 42.5241 18.1632 42 19C41.577 19.6804 40.7449 20 40 20C38.978 20 39 20.0443 39 19C39 16.9385 41.0721 16 43 16V17ZM45 23C44.8241 23.1429 45.1984 23.0952 45 23C44.1165 22.3333 43.4829 21.6361 43 21C41.5401 22.3539 40.8904 23 39 23C36.7577 23 35 21.5139 35 19C35 17.0372 36.3304 15.6531 38 15C39.4449 14.4217 41.4577 14.1599 43 14C43 13.4251 42.3743 12.4967 42 12C41.6781 11.5544 41.5503 12 41 12C39.9855 12 39.2209 12.0203 39 13C38.9551 13.2177 38.2433 12.9898 38 13H36C35.7829 12.9558 34.9364 13.3028 35 13C35.5914 10.1561 38.4695 9 41 9C42.2952 9 43.978 9.10874 45 10C46.2952 11.0988 46 12.4046 46 14V18C46 19.1328 46.5133 19.3877 47 20C47.1684 20.2177 47.2171 20.8367 47 21C46.4572 21.4116 45.5315 22.5714 45 23Z" fill="#79797A" fill-opacity="0.45"/>
<path fill-rule="evenodd" clip-rule="evenodd" d="M7.99999 17C7.99999 17.9423 7.52406 18.1632 6.99999 19C6.57698 19.6804 6.74866 20 5.99999 20C4.97804 20 3.99999 20.0443 3.99999 19C3.99999 16.9385 6.07588 16 7.99999 16V17ZM11 23C10.824 23.1429 10.1984 23.0952 9.99999 23C9.11655 22.3333 8.48663 21.6361 7.99999 21C6.54007 22.3539 5.89414 23 3.99999 23C1.76144 23 -1.28665e-05 21.5139 -1.28665e-05 19C-1.28665e-05 17.0372 1.33418 15.6531 2.99999 15C4.44493 14.4217 6.45771 14.1599 7.99999 14C7.99999 13.4251 8.37058 12.4967 7.99999 12C7.67431 11.5544 6.54652 12 5.99999 12C4.98553 12 4.22085 12.0203 3.99999 13C3.95507 13.2177 3.23956 12.9898 2.99999 13H0.999987C0.78287 12.9558 -0.0599072 13.3028 -1.28665e-05 13C0.595186 10.1561 3.46945 9 5.99999 9C7.2952 9 8.97804 9.10874 9.99999 10C11.2952 11.0988 12 12.4046 12 14V18C12 19.1328 12.5133 19.3877 13 20C13.1722 20.2177 13.2171 20.8367 13 21C12.4572 21.4116 11.5316 22.5714 11 23Z" fill="#79797A" fill-opacity="0.45"/>
</g>
<defs>
<clipPath id="clip0_15_559">
<rect width="86" height="34" fill="white"/>
</clipPath>
</defs>
</svg>
