<svg width="86" height="34" viewBox="0 0 86 34" fill="none" xmlns="http://www.w3.org/2000/svg">
<path d="M6 22H0V25H6V22Z" fill="#79797A" fill-opacity="0.45"/>
<path d="M15 22H9V25H15V22Z" fill="#79797A" fill-opacity="0.45"/>
<path d="M15 17H0V20H15V17Z" fill="#79797A" fill-opacity="0.45"/>
<path d="M9 12H0V15H9V12Z" fill="#79797A" fill-opacity="0.45"/>
<path d="M15 12H12V15H15V12Z" fill="#79797A" fill-opacity="0.45"/>
<path d="M57 12C52.3377 12 50 14.5856 50 18C50 21.4145 52.2783 25 57 25C61.7217 25 64 21.4145 64 18C64.0002 14.5856 61.6622 12 57 12ZM60 18C59.9967 20.1956 59.6427 22 57 22C54.3573 22 53.0027 20.1958 53 18V18C53.0027 15.8045 54.3573 14 57 14C59.6425 14 59.9967 15.8045 60 18V18C60 18.0019 60 17.9982 60 18Z" fill="#79797A" fill-opacity="0.45"/>
<path d="M36 25V7.00001C36 7.00001 38.7918 7.02353 39 7.00001C39.2359 6.97326 39 6.72127 39 7.00001V14C39.5573 13.5552 40.3312 13.2732 41 13C41.6694 12.7271 42.0982 12 43 12C43.7807 12 45.396 12.7775 46 13C46.6044 13.222 46.5958 13.5986 47 14C47.4042 14.4021 47.7909 14.4422 48 15C48.209 15.5578 48 16.3291 48 17V25H45V17C45 16.2668 44.4042 15.4021 44 15C43.5956 14.5984 42.8087 15 42 15C41.4054 15 41.5201 14.7735 41 15C40.4793 15.2263 39.4646 15.6097 39 16V25H36Z" fill="#79797A" fill-opacity="0.45"/>
<path d="M82 25C79.6307 25 78 23.1595 78 21V15H75C75 15 75.9551 13.1298 76 13C76.0451 12.8704 75.7643 13.0275 76 13C76.2357 12.9725 78 13 78 13L79 9.00001C79 9.00001 80.6943 9.03829 81 9.00001C81.2886 8.96373 81 8.73603 81 9.00001V13H85V15H81V21C81 21.8621 82.4008 22 83 22C83.3663 22 83.6257 22.1458 84 22C84.2313 21.9102 83.9073 21.729 84 22C84.0819 22.2402 85 24 85 24C84.6244 24.2036 83.686 25 82 25Z" fill="#79797A" fill-opacity="0.45"/>
<path d="M73 15C72.329 14.8171 71.1997 14 70 14C68.7776 14 68 15.1467 68 16C68 17.0658 70.581 17.5655 72 18C72.9487 18.2904 75 18.7031 75 21C75 23.7902 71.9443 25 69 25C66.0553 25 65 24 65 24C65 24 64.9075 22.2674 65 22C65.0837 21.7594 65.7877 21.9316 66 22C66.7578 22.2452 67.4532 22 69 22C70.566 22 72 21.8558 72 21C72 19.8611 69.3986 19.3704 68 19C67.0365 18.7451 65 18.5262 65 16C65 13.5115 67.2181 12 70 12C72.3548 12 74.1372 12.631 75 13C75 13 74.0714 14.7905 74 15C73.9158 15.2491 73.3051 15.083 73 15Z" fill="#79797A" fill-opacity="0.45"/>
<path d="M34 13C34 12.7308 34.2613 11.975 34 12C32.8446 12.1112 31.5333 12.5751 31 13C29.9528 12.3112 28.6314 12 27 12C23.7291 12 21 14.1102 21 17C21 18.6589 22.6642 19.3271 24 20C23.0079 20.3942 22 21.1776 22 22C22 23.3757 23 24 23 24C23 24 21 25.1548 21 27C21 29.3621 23.8359 30 27 30C31.5609 30 34 27.9038 34 25C34 23.2129 32.55 23.1173 29 23C26.8934 22.9302 25.3381 22.0939 25 22C24.5533 21.8755 25 22.3315 25 22C25 21.6341 25.4356 21.2392 26 21C26.4923 21.0732 26.4605 21 27 21C30.2736 21 33 19.8936 33 17C33 16.2983 33.2743 15.5204 33 15C33.4809 14.7846 33.2935 14 34 14C34 14 34 13.2455 34 13ZM25 25C25 25 27.2836 24.9333 29 25C30.9283 25.0749 31 25.1618 31 26C31 27.0241 29.3418 28 27 28C24.7771 28 24 27.081 24 26C24 25.3798 24.0024 25.3592 25 25ZM27 19C25.4505 19 25 18.5072 25 17C25 15.4927 25.4516 14 27 14C28.5486 14 30 15.4909 30 17C30 18.5092 28.5501 19 27 19Z" fill="#79797A" fill-opacity="0.45"/>
</svg>
