<svg width="86" height="34" viewBox="0 0 86 34" fill="none" xmlns="http://www.w3.org/2000/svg">
<path d="M26.955 22.9687L27.9985 20.538C29.141 21.3813 30.6311 21.8276 32.1217 21.8276C33.2147 21.8276 33.9101 21.4061 33.9101 20.7614C33.8851 18.9755 27.3276 20.3644 27.2778 15.8746C27.2528 13.5927 29.2899 11.8317 32.1716 11.8317C33.8851 11.8317 35.5994 12.2535 36.8164 13.221L35.8413 15.7034C34.7216 14.9859 33.3386 14.4856 32.0223 14.4856C31.1281 14.4856 30.5318 14.9071 30.5318 15.4531C30.5567 17.2141 37.1644 16.2467 37.2389 20.538C37.2389 22.8696 35.2513 24.5067 32.4195 24.5067C30.3333 24.5067 28.4206 24.0107 26.9547 22.9687H26.955ZM68.5037 19.6579C68.2403 20.1243 67.8572 20.5125 67.3936 20.7826C66.93 21.0528 66.4027 21.1952 65.8657 21.1952C64.192 21.1952 62.8354 19.8404 62.8354 18.1692C62.8354 16.498 64.192 15.1432 65.8657 15.1432C66.4027 15.1432 66.93 15.2856 67.3936 15.5558C67.8572 15.8259 68.2403 16.2141 68.5037 16.6805L71.4046 15.0757C70.3181 13.1404 68.2454 11.8317 65.8657 11.8317C62.3605 11.8317 59.5191 14.6689 59.5191 18.1692C59.5191 21.6692 62.3605 24.5067 65.8657 24.5067C68.2454 24.5067 70.3181 23.198 71.4046 21.2627L68.5037 19.6579ZM39.1213 24.2585H42.7479V6.55615H39.1216L39.1213 24.2585ZM73.2361 6.55615V24.2585H76.8627V18.9549L81.1602 24.2585H85.7957L80.3308 17.958L85.3981 12.0788H80.9614L76.8627 16.9667V6.55615H73.2361ZM53.921 12.0795V13.5185C53.325 12.5262 51.8594 11.8317 50.3193 11.8317C47.1398 11.8317 44.631 14.6348 44.631 18.1568C44.631 21.6788 47.1398 24.5067 50.3193 24.5067C51.8594 24.5067 53.325 23.8122 53.921 22.8199V24.2585H57.5476V12.0795H53.921ZM53.921 19.6824C53.3994 20.5505 52.3064 21.1949 51.0895 21.1949C49.4155 21.1949 48.0589 19.8404 48.0589 18.1692C48.0589 16.498 49.4155 15.1432 51.0895 15.1432C52.3064 15.1432 53.3994 15.8128 53.921 16.7054V19.6824Z" fill="#79797A" fill-opacity="0.45"/>
<path d="M7.80276 6.16507C6.6275 6.16507 5.67488 7.11658 5.67488 8.28999C5.6746 8.56876 5.72942 8.84486 5.8362 9.10251C5.94299 9.36017 6.09965 9.59434 6.29724 9.79166C6.49483 9.98898 6.72949 10.1456 6.9878 10.2525C7.24612 10.3595 7.52305 10.4146 7.80276 10.4149H9.931V8.28999C9.93147 7.72696 9.70752 7.1868 9.30841 6.78831C8.9093 6.38982 8.36771 6.16563 7.80276 6.16507V6.16507ZM7.80276 11.8315H2.12806C0.952795 11.8315 0.000183105 12.783 0.000183105 13.9568C0.000183105 15.1302 0.952795 16.0817 2.12806 16.0817H7.80312C8.97803 16.0817 9.931 15.1302 9.931 13.9568C9.931 12.783 8.97803 11.8315 7.80276 11.8315" fill="#79797A" fill-opacity="0.45"/>
<path d="M21.2805 13.9568C21.2805 12.783 20.3275 11.8315 19.1522 11.8315C17.977 11.8315 17.0243 12.783 17.0243 13.9568V16.0817H19.1522C19.7172 16.0812 20.2588 15.857 20.6579 15.4585C21.057 15.06 21.2809 14.5198 21.2805 13.9568V13.9568ZM15.6058 13.9568V8.28999C15.6062 7.72696 15.3823 7.1868 14.9832 6.78831C14.5841 6.38982 14.0425 6.16563 13.4775 6.16507C12.3023 6.16507 11.3496 7.11658 11.3496 8.28999V13.9565C11.3496 15.1306 12.3023 16.0821 13.4775 16.0821C14.0425 16.0815 14.5841 15.8573 14.9832 15.4589C15.3823 15.0604 15.6062 14.5202 15.6058 13.9572" fill="#79797A" fill-opacity="0.45"/>
<path d="M13.4776 27.415C14.0425 27.4145 14.5841 27.1903 14.9832 26.7918C15.3823 26.3933 15.6063 25.8532 15.6058 25.2901C15.6063 24.7271 15.3823 24.1869 14.9832 23.7884C14.5841 23.3899 14.0425 23.1658 13.4776 23.1652H11.3497V25.2901C11.3497 26.4635 12.3023 27.415 13.4776 27.415ZM13.4776 21.7486H19.1526C20.3275 21.7486 21.2805 20.7971 21.2805 19.6233C21.281 19.0603 21.057 18.5201 20.6579 18.1216C20.2588 17.7231 19.7172 17.4989 19.1523 17.4984H13.4776C12.3023 17.4984 11.3497 18.4499 11.3497 19.6233C11.3494 19.9021 11.4042 20.1782 11.511 20.4358C11.6178 20.6935 11.7745 20.9277 11.9721 21.125C12.1696 21.3223 12.4043 21.4789 12.6626 21.5858C12.9209 21.6928 13.1979 21.748 13.4776 21.7482" fill="#79797A" fill-opacity="0.45"/>
<path d="M1.07368e-06 19.6233C-0.000279767 19.9021 0.0545367 20.1782 0.161321 20.4358C0.268105 20.6935 0.424765 20.9277 0.622357 21.125C0.819949 21.3223 1.0546 21.4789 1.31292 21.5858C1.57124 21.6928 1.84816 21.748 2.12788 21.7482C2.69283 21.7477 3.23442 21.5235 3.63353 21.125C4.03264 20.7265 4.25659 20.1863 4.25612 19.6233V17.4984H2.12788C0.952613 17.4984 1.07368e-06 18.4499 1.07368e-06 19.6233V19.6233ZM5.6747 19.6233V25.2898C5.6747 26.4635 6.62731 27.415 7.80258 27.415C8.36753 27.4145 8.90912 27.1903 9.30823 26.7918C9.70734 26.3933 9.93129 25.8532 9.93082 25.2901V19.6233C9.9311 19.3445 9.87627 19.0684 9.76946 18.8107C9.66266 18.553 9.50597 18.3188 9.30834 18.1215C9.11071 17.9242 8.87601 17.7676 8.61765 17.6607C8.35929 17.5538 8.08233 17.4986 7.80258 17.4984C6.62731 17.4984 5.6747 18.4499 5.6747 19.6233Z" fill="#79797A" fill-opacity="0.45"/>
</svg>
